{
	"asset":{
		"generator":"Khronos glTF Blender I/O v4.4.56",
		"version":"2.0"
	},
	"scene":0,
	"scenes":[
		{
			"name":"Scene",
			"nodes":[
				0,
				1,
				2
			]
		}
	],
	"nodes":[
		{
			"extras":{
				"collider":true,
				"rigid_body":2
			},
			"mesh":0,
			"name":"Sphere"
		},
		{
			"extras":{
				"gravity_field":0,
				"gravity_field_priority":0,
				"gravity_field_radius":20.0
			},
			"name":"gravity_field_sphere"
		},
		{
			"extras":{
				"gravity_field":1,
				"gravity_field_priority":1,
				"gravity_field_radius":5.75,
				"gravity_field_height":30.0
			},
			"name":"gravity_field_cylinder",
			"translation":[
				0,
				-15,
				0
			]
		}
	],
	"meshes":[
		{
			"name":"Sphere",
			"primitives":[
				{
					"attributes":{
						"POSITION":0,
						"NORMAL":1,
						"TEXCOORD_0":2
					},
					"indices":3
				}
			]
		}
	],
	"accessors":[
		{
			"bufferView":0,
			"componentType":5126,
			"count":2432,
			"max":[
				14.999994277954102,
				13.117076873779297,
				14.999990463256836
			],
			"min":[
				-14.99998664855957,
				-13.117076873779297,
				-15
			],
			"type":"VEC3"
		},
		{
			"bufferView":1,
			"componentType":5126,
			"count":2432,
			"type":"VEC3"
		},
		{
			"bufferView":2,
			"componentType":5126,
			"count":2432,
			"type":"VEC2"
		},
		{
			"bufferView":3,
			"componentType":5123,
			"count":3648,
			"type":"SCALAR"
		}
	],
	"bufferViews":[
		{
			"buffer":0,
			"byteLength":29184,
			"byteOffset":0,
			"target":34962
		},
		{
			"buffer":0,
			"byteLength":29184,
			"byteOffset":29184,
			"target":34962
		},
		{
			"buffer":0,
			"byteLength":19456,
			"byteOffset":58368,
			"target":34962
		},
		{
			"buffer":0,
			"byteLength":7296,
			"byteOffset":77824,
			"target":34963
		}
	],
	"buffers":[
		{
			"byteLength":85120,
			"uri":"hole_planet.bin"
		}
	]
}
