{
	"asset":{
		"generator":"Khronos glTF Blender I/O v4.4.56",
		"version":"2.0"
	},
	"scene":0,
	"scenes":[
		{
			"name":"Scene",
			"nodes":[
				0,
				1,
				2,
				3
			]
		}
	],
	"nodes":[
		{
			"extras":{
				"rigid_body":2
			},
			"mesh":0,
			"name":"Sphere"
		},
		{
			"extras":{
				"gravity_field":0,
				"gravity_field_priority":0,
				"gravity_field_radius":20.0
			},
			"name":"gravity_field_sphere"
		},
		{
			"extras":{
				"gravity_field":1,
				"gravity_field_priority":1,
				"gravity_field_radius":5.75,
				"gravity_field_height":30.0
			},
			"name":"gravity_field_cylinder",
			"translation":[
				0,
				-15,
				0
			]
		},
		{
			"extras":{
				"gravity_field":1,
				"gravity_field_priority":1,
				"gravity_field_radius":5.75,
				"gravity_field_height":15.0
			},
			"name":"gravity_field_cylinder.001",
			"rotation":[
				0,
				0,
				-0.7071068286895752,
				0.7071068286895752
			],
			"translation":[
				-30,
				0,
				0
			]
		}
	],
	"materials":[
		{
			"doubleSided":true,
			"name":"Material",
			"pbrMetallicRoughness":{
				"baseColorFactor":[
					0.800000011920929,
					0.800000011920929,
					0.800000011920929,
					1
				],
				"metallicFactor":0,
				"roughnessFactor":0.5
			}
		}
	],
	"meshes":[
		{
			"name":"Sphere",
			"primitives":[
				{
					"attributes":{
						"POSITION":0,
						"NORMAL":1,
						"TEXCOORD_0":2
					},
					"indices":3,
					"material":0
				}
			]
		}
	],
	"accessors":[
		{
			"bufferView":0,
			"componentType":5126,
			"count":2624,
			"max":[
				14.999994277954102,
				13.117076873779297,
				14.999990463256836
			],
			"min":[
				-15.032476425170898,
				-13.117076873779297,
				-15
			],
			"type":"VEC3"
		},
		{
			"bufferView":1,
			"componentType":5126,
			"count":2624,
			"type":"VEC3"
		},
		{
			"bufferView":2,
			"componentType":5126,
			"count":2624,
			"type":"VEC2"
		},
		{
			"bufferView":3,
			"componentType":5123,
			"count":4020,
			"type":"SCALAR"
		}
	],
	"bufferViews":[
		{
			"buffer":0,
			"byteLength":31488,
			"byteOffset":0,
			"target":34962
		},
		{
			"buffer":0,
			"byteLength":31488,
			"byteOffset":31488,
			"target":34962
		},
		{
			"buffer":0,
			"byteLength":20992,
			"byteOffset":62976,
			"target":34962
		},
		{
			"buffer":0,
			"byteLength":8040,
			"byteOffset":83968,
			"target":34963
		}
	],
	"buffers":[
		{
			"byteLength":92008,
			"uri":"hole_planet.bin"
		}
	]
}
